<svg xmlns="http://www.w3.org/2000/svg" width="48" height="48" fill-rule="evenodd" xmlns:v="https://vecta.io/nano"><g fill="#fff"><path d="M4.868 43.303l2.694-9.835a18.94 18.94 0 0 1-2.535-9.489C5.032 13.514 13.548 5 24.014 5c5.079.002 9.845 1.979 13.43 5.566S43.002 18.922 43 23.994c-.004 10.465-8.522 18.98-18.986 18.98h-.008c-3.177-.001-6.3-.798-9.073-2.311l-10.065 2.64z"/><path d="M4.868 43.803a.5.5 0 0 1-.482-.631l2.639-9.636a19.48 19.48 0 0 1-2.497-9.556C4.532 13.238 13.273 4.5 24.014 4.5c5.21.002 10.105 2.031 13.784 5.713A19.36 19.36 0 0 1 43.5 23.994c-.004 10.741-8.746 19.48-19.486 19.48-3.189-.001-6.344-.788-9.144-2.277l-9.875 2.589c-.042.012-.084.017-.127.017z"/></g><path fill="#cfd8dc" d="M24.014 5c5.079.002 9.845 1.979 13.43 5.566S43.002 18.922 43 23.994c-.004 10.465-8.522 18.98-18.986 18.98h-.008c-3.177-.001-6.3-.798-9.073-2.311l-10.065 2.64 2.694-9.835a18.94 18.94 0 0 1-2.535-9.489C5.032 13.514 13.548 5 24.014 5m0-1C12.998 4 4.032 12.962 4.027 23.979a20.01 20.01 0 0 0 2.461 9.622L3.903 43.04a1 1 0 0 0 .965 1.264 1 1 0 0 0 .254-.033l9.687-2.54c2.828 1.468 5.998 2.243 9.197 2.244 11.024 0 19.99-8.963 19.995-19.98.002-5.339-2.075-10.359-5.848-14.135S29.357 4.002 24.014 4h0z"/><path fill="#40c351" d="M35.176 12.832a15.67 15.67 0 0 0-11.157-4.626c-8.704 0-15.783 7.076-15.787 15.774-.001 2.981.833 5.883 2.413 8.396l.376.597-1.595 5.821 5.973-1.566.577.342a15.75 15.75 0 0 0 8.032 2.199h.006c8.698 0 15.777-7.077 15.78-15.776a15.68 15.68 0 0 0-4.618-11.161z"/><path fill="#fff" d="M19.268 16.045c-.355-.79-.729-.806-1.068-.82l-.909-.011c-.316 0-.83.119-1.265.594s-1.661 1.622-1.661 3.956 1.7 4.59 1.937 4.906 3.282 5.259 8.104 7.161c4.007 1.58 4.823 1.266 5.693 1.187s2.807-1.147 3.202-2.255.395-2.057.277-2.255-.435-.316-.909-.554-2.807-1.385-3.242-1.543-.751-.237-1.068.238-1.225 1.543-1.502 1.859-.554.357-1.028.119-2.002-.738-3.815-2.354c-1.41-1.257-2.362-2.81-2.639-3.285s-.03-.731.208-.968c.213-.213.474-.554.712-.831s.316-.475.474-.791.079-.594-.04-.831-1.039-2.584-1.461-3.522z"/></svg>