<svg xmlns="http://www.w3.org/2000/svg" width="256" height="256" viewBox="0 -32.5 256 256" fill-rule="evenodd" xmlns:v="https://vecta.io/nano"><path d="M77.891 183.615c-.19-.336-.359-.683-.506-1.04a13.33 13.33 0 0 1-.906-7.517H15.993l89.888-158.184 29.51 51.875 8.557-15.141L118.224 8.29c-.72-1.306-5.065-8.29-12.556-8.29-3.385 0-8.237 1.466-12.182 8.397L2.425 168.5c-.773 1.386-4.532 8.664-.8 15.115 1.706 2.932 5.331 6.424 13.329 6.424H91.22c-7.944 0-11.623-3.439-13.329-6.424z" fill="#01c58e"/><path d="M253.242 168.5L178.416 36.68c-.773-1.386-5.092-8.397-12.609-8.397-3.385 0-8.237 1.439-12.182 8.37l-9.677 16.954 8.61 15.141 13.329-23.592 74.027 129.901h-28.15a12.61 12.61 0 0 1-.586 6.398c-.157.452-.353.889-.586 1.306l-.24.48c-3.785 6.451-11.969 6.798-13.569 6.798h44.038c1.626 0 9.783-.347 13.569-6.798 1.679-2.932 2.879-7.864-1.146-14.741z" fill="#108775"/><path d="M210.351 183.242l.24-.48c.233-.417.43-.854.586-1.306a12.61 12.61 0 0 0 .586-6.398c-.415-2.316-1.246-4.538-2.452-6.558l-56.7-99.751-8.664-15.141-8.61 15.141L78.664 168.5a20.18 20.18 0 0 0-2.186 6.558 13.33 13.33 0 0 0 .826 7.517c.147.357.317.704.506 1.04 1.706 2.932 5.331 6.424 13.329 6.424h105.563c1.679 0 9.863-.347 13.648-6.798h0zM143.948 83.89l51.822 91.168H92.153l51.795-91.168z" fill="#2f495e"/></svg>